<svg width="135" height="19" viewBox="0 0 135 19" fill="none" xmlns="http://www.w3.org/2000/svg">
<path d="M0.647705 4.36359V0.54541H15.8182V4.36359H10.5682V18H5.89771V4.36359H0.647705Z" fill="#292C27"/>
<path d="M16.3103 18V4.90905H20.8785V7.39768H21.0149C21.2535 6.47723 21.6314 5.80393 22.1484 5.3778C22.6711 4.95166 23.2819 4.73859 23.9808 4.73859C24.1853 4.73859 24.3871 4.75564 24.5859 4.78973C24.7905 4.81814 24.9865 4.86075 25.174 4.91757V8.93177C24.941 8.85223 24.6541 8.79257 24.3132 8.7528C23.9723 8.71302 23.6797 8.69314 23.4353 8.69314C22.9751 8.69314 22.5603 8.79825 22.191 9.00848C21.8274 9.21302 21.5405 9.5028 21.3302 9.8778C21.12 10.2471 21.0149 10.6818 21.0149 11.1818V18H16.3103Z" fill="#292C27"/>
<path d="M29.7549 18.2045C28.9197 18.2045 28.1811 18.0681 27.539 17.7954C26.9027 17.517 26.4027 17.0965 26.039 16.534C25.6754 15.9715 25.4936 15.2556 25.4936 14.3863C25.4936 13.6704 25.6157 13.0596 25.8601 12.5539C26.1044 12.0426 26.4453 11.625 26.8828 11.3011C27.3203 10.9772 27.8288 10.7301 28.4084 10.5596C28.9936 10.3892 29.6243 10.2784 30.3004 10.2272C31.0334 10.1704 31.6214 10.1022 32.0646 10.0227C32.5135 9.93746 32.8373 9.82098 33.0362 9.67325C33.2351 9.51984 33.3345 9.31814 33.3345 9.06814V9.03405C33.3345 8.69314 33.2038 8.43177 32.9425 8.24996C32.6811 8.06814 32.3459 7.97723 31.9368 7.97723C31.4879 7.97723 31.1214 8.07666 30.8373 8.27552C30.5589 8.46871 30.3913 8.767 30.3345 9.17041H26.0049C26.0618 8.37496 26.3146 7.642 26.7635 6.97155C27.218 6.29541 27.8799 5.75564 28.7493 5.35223C29.6186 4.94314 30.7038 4.73859 32.0049 4.73859C32.9424 4.73859 33.7834 4.84939 34.5277 5.07098C35.272 5.28689 35.9055 5.59087 36.4282 5.98291C36.951 6.36927 37.3487 6.82382 37.6214 7.34655C37.8998 7.86359 38.039 8.42609 38.039 9.03405V18H33.6413V16.159H33.539C33.2777 16.6477 32.9595 17.0426 32.5845 17.3437C32.2152 17.6448 31.7919 17.8636 31.3146 18C30.843 18.1363 30.3231 18.2045 29.7549 18.2045ZM31.289 15.2386C31.647 15.2386 31.9822 15.1647 32.2947 15.017C32.6129 14.8693 32.8714 14.6562 33.0703 14.3778C33.2692 14.0994 33.3686 13.7613 33.3686 13.3636V12.2727C33.2436 12.3238 33.1101 12.3721 32.968 12.4176C32.8317 12.463 32.6839 12.5056 32.5248 12.5454C32.3714 12.5852 32.2067 12.6221 32.0305 12.6562C31.8601 12.6903 31.6811 12.7215 31.4936 12.75C31.1299 12.8068 30.8317 12.9005 30.5987 13.0312C30.3714 13.1562 30.201 13.3125 30.0873 13.5C29.9794 13.6818 29.9254 13.8863 29.9254 14.1136C29.9254 14.4772 30.0532 14.7556 30.3089 14.9488C30.5646 15.142 30.8913 15.2386 31.289 15.2386Z" fill="#292C27"/>
<path d="M53.0113 4.90905L48.6136 18H43.1591L38.7613 4.90905H43.7045L45.8182 13.5681H45.9545L48.0682 4.90905H53.0113Z" fill="#292C27"/>
<path d="M60.2237 18.2386C58.826 18.2386 57.6214 17.9715 56.6101 17.4375C55.6044 16.8977 54.8288 16.125 54.2834 15.1193C53.7436 14.1079 53.4737 12.8977 53.4737 11.4886C53.4737 10.1363 53.7464 8.9545 54.2919 7.94314C54.8373 6.93177 55.6072 6.14484 56.6015 5.58234C57.5959 5.01984 58.7692 4.73859 60.1214 4.73859C61.1101 4.73859 62.005 4.892 62.8061 5.19882C63.6072 5.50564 64.2919 5.95166 64.8601 6.53689C65.4282 7.11643 65.8657 7.82098 66.1726 8.65052C66.4794 9.48007 66.6328 10.4147 66.6328 11.4545V12.5454H54.9396V9.9545H62.3032C62.2976 9.5795 62.201 9.24996 62.0135 8.96587C61.8317 8.67609 61.5845 8.45166 61.272 8.29257C60.9652 8.1278 60.6157 8.04541 60.2237 8.04541C59.843 8.04541 59.4936 8.1278 59.1754 8.29257C58.8572 8.45166 58.6015 8.67325 58.4084 8.95734C58.2209 9.24143 58.1214 9.57382 58.1101 9.9545V12.75C58.1101 13.1704 58.1981 13.5454 58.3743 13.875C58.5504 14.2045 58.8032 14.463 59.1328 14.6505C59.4623 14.838 59.8601 14.9318 60.326 14.9318C60.6498 14.9318 60.9453 14.8863 61.2123 14.7954C61.4851 14.7045 61.718 14.5738 61.9112 14.4034C62.1044 14.2272 62.2464 14.017 62.3373 13.7727H66.6328C66.4851 14.6818 66.1356 15.4715 65.5845 16.142C65.0334 16.8068 64.3032 17.3238 63.3942 17.6931C62.4907 18.0568 61.4339 18.2386 60.2237 18.2386Z" fill="#292C27"/>
<path d="M73.2571 0.54541V18H68.5525V0.54541H73.2571Z" fill="#292C27"/>
<path d="M75.1086 4.36359V0.54541H90.2791V4.36359H85.0291V18H80.3586V4.36359H75.1086Z" fill="#30AF5B"/>
<path d="M90.7713 18V4.90905H95.3395V7.39768H95.4758C95.7145 6.47723 96.0923 5.80393 96.6094 5.3778C97.1321 4.95166 97.7429 4.73859 98.4417 4.73859C98.6463 4.73859 98.848 4.75564 99.0469 4.78973C99.2514 4.81814 99.4474 4.86075 99.6349 4.91757V8.93177C99.402 8.85223 99.115 8.79257 98.7741 8.7528C98.4332 8.71302 98.1406 8.69314 97.8963 8.69314C97.4361 8.69314 97.0213 8.79825 96.652 9.00848C96.2883 9.21302 96.0014 9.5028 95.7912 9.8778C95.5809 10.2471 95.4758 10.6818 95.4758 11.1818V18H90.7713Z" fill="#30AF5B"/>
<path d="M106.7 18.2386C105.303 18.2386 104.098 17.9715 103.087 17.4375C102.081 16.8977 101.305 16.125 100.76 15.1193C100.22 14.1079 99.9503 12.8977 99.9503 11.4886C99.9503 10.1363 100.223 8.9545 100.768 7.94314C101.314 6.93177 102.084 6.14484 103.078 5.58234C104.072 5.01984 105.246 4.73859 106.598 4.73859C107.587 4.73859 108.482 4.892 109.283 5.19882C110.084 5.50564 110.768 5.95166 111.337 6.53689C111.905 7.11643 112.342 7.82098 112.649 8.65052C112.956 9.48007 113.109 10.4147 113.109 11.4545V12.5454H101.416V9.9545H108.78C108.774 9.5795 108.678 9.24996 108.49 8.96587C108.308 8.67609 108.061 8.45166 107.749 8.29257C107.442 8.1278 107.092 8.04541 106.7 8.04541C106.32 8.04541 105.97 8.1278 105.652 8.29257C105.334 8.45166 105.078 8.67325 104.885 8.95734C104.697 9.24143 104.598 9.57382 104.587 9.9545V12.75C104.587 13.1704 104.675 13.5454 104.851 13.875C105.027 14.2045 105.28 14.463 105.609 14.6505C105.939 14.838 106.337 14.9318 106.803 14.9318C107.126 14.9318 107.422 14.8863 107.689 14.7954C107.962 14.7045 108.195 14.5738 108.388 14.4034C108.581 14.2272 108.723 14.017 108.814 13.7727H113.109C112.962 14.6818 112.612 15.4715 112.061 16.142C111.51 16.8068 110.78 17.3238 109.871 17.6931C108.967 18.0568 107.91 18.2386 106.7 18.2386Z" fill="#30AF5B"/>
<path d="M119.256 14.8977L119.29 9.30677H119.904L123.075 4.90905H128.359L123.04 11.7613H121.711L119.256 14.8977ZM115.029 18V0.54541H119.734V18H115.029ZM123.109 18L120.109 12.8181L123.177 9.47723L128.495 18H123.109Z" fill="#30AF5B"/>
<path d="M132.141 18.2727C131.482 18.2727 130.916 18.0426 130.445 17.5823C129.979 17.1164 129.749 16.5511 129.754 15.8863C129.749 15.2386 129.979 14.6846 130.445 14.2244C130.916 13.7642 131.482 13.534 132.141 13.534C132.766 13.534 133.317 13.7642 133.794 14.2244C134.277 14.6846 134.521 15.2386 134.527 15.8863C134.521 16.3295 134.405 16.7329 134.178 17.0965C133.956 17.4545 133.666 17.7414 133.308 17.9573C132.95 18.1676 132.561 18.2727 132.141 18.2727Z" fill="#30AF5B"/>
</svg>
