<svg width="72" height="20" viewBox="0 0 72 20" fill="none" xmlns="http://www.w3.org/2000/svg">
<g clip-path="url(#clip0_122_199)">
<path d="M0.51709 19V1.54549H4.20743V8.7472H11.6989V1.54549H15.3807V19H11.6989V11.7898H4.20743V19H0.51709ZM18.3551 19V5.90913H21.9858V19H18.3551ZM20.179 4.22163C19.6392 4.22163 19.1761 4.04265 18.7898 3.6847C18.4091 3.32106 18.2188 2.8864 18.2188 2.38072C18.2188 1.88072 18.4091 1.45174 18.7898 1.09379C19.1761 0.730158 19.6392 0.54834 20.179 0.54834C20.7188 0.54834 21.179 0.730158 21.5597 1.09379C21.946 1.45174 22.1392 1.88072 22.1392 2.38072C22.1392 2.8864 21.946 3.32106 21.5597 3.6847C21.179 4.04265 20.7188 4.22163 20.179 4.22163Z" fill="white"/>
<path d="M28.525 1.54549V19H24.8943V1.54549H28.525ZM31.4333 19V5.90913H35.064V19H31.4333ZM33.2572 4.22163C32.7174 4.22163 32.2544 4.04265 31.868 3.6847C31.4873 3.32106 31.297 2.8864 31.297 2.38072C31.297 1.88072 31.4873 1.45174 31.868 1.09379C32.2544 0.730158 32.7174 0.54834 33.2572 0.54834C33.797 0.54834 34.2572 0.730158 34.6379 1.09379C35.0242 1.45174 35.2174 1.88072 35.2174 2.38072C35.2174 2.8864 35.0242 3.32106 34.6379 3.6847C34.2572 4.04265 33.797 4.22163 33.2572 4.22163ZM41.6031 11.4318V19H37.9724V5.90913H41.4326V8.21879H41.586C41.8758 7.45743 42.3616 6.85515 43.0434 6.41197C43.7252 5.96311 44.5519 5.73868 45.5235 5.73868C46.4326 5.73868 47.2252 5.93754 47.9014 6.33527C48.5775 6.73299 49.1031 7.30118 49.4781 8.03981C49.8531 8.77277 50.0406 9.64777 50.0406 10.6648V19H46.4099V11.3125C46.4156 10.5114 46.211 9.8864 45.7963 9.43754C45.3815 8.98299 44.8105 8.75572 44.0832 8.75572C43.5946 8.75572 43.1627 8.86084 42.7877 9.07106C42.4184 9.28129 42.1287 9.58811 41.9184 9.99152C41.7139 10.3892 41.6088 10.8693 41.6031 11.4318ZM56.1919 15.233L56.2004 10.8778H56.7288L60.922 5.90913H65.0896L59.4561 12.4886H58.5953L56.1919 15.233ZM52.9021 19V1.54549H56.5328V19H52.9021ZM61.0839 19L57.2316 13.2983L59.6521 10.733L65.3367 19H61.0839ZM68.993 19.2216C68.4305 19.2216 67.9475 19.0227 67.5441 18.625C67.1464 18.2216 66.9475 17.7386 66.9475 17.1761C66.9475 16.6193 67.1464 16.142 67.5441 15.7443C67.9475 15.3466 68.4305 15.1477 68.993 15.1477C69.5385 15.1477 70.0157 15.3466 70.4248 15.7443C70.8339 16.142 71.0385 16.6193 71.0385 17.1761C71.0385 17.5511 70.9419 17.8949 70.7487 18.2074C70.5612 18.5142 70.314 18.7614 70.0072 18.9489C69.7004 19.1307 69.3623 19.2216 68.993 19.2216Z" fill="white"/>
</g>
<defs>
<clipPath id="clip0_122_199">
<rect width="72" height="20" fill="white"/>
</clipPath>
</defs>
</svg>
